<?xml version="1.0" encoding="UTF-8" standalone="no"?>
<svg xmlns="http://www.w3.org/2000/svg" width="343" height="329" viewBox="0 0 343 329">
  <g fill="#000000" fill-rule="evenodd" stroke="none">
    <path d="M 232 275 L 231 276 L 230 276 L 229 277 L 228 277 L 227 278 L 226 279 L 225 280 L 224 281 L 224 282 L 223 283 L 222 284 L 222 285 L 221 286 L 221 287 L 220 288 L 220 289 L 219 290 L 219 291 L 218 292 L 218 293 L 218 294 L 219 295 L 220 295 L 221 294 L 222 294 L 223 293 L 223 292 L 224 291 L 225 290 L 225 289 L 226 288 L 227 287 L 228 286 L 228 285 L 229 284 L 230 284 L 231 283 L 232 282 L 233 282 L 234 281 L 235 281 L 236 281 L 237 281 L 238 281 L 239 281 L 240 281 L 241 281 L 242 282 L 243 282 L 244 282 L 245 282 L 246 282 L 247 281 L 247 280 L 246 279 L 246 278 L 245 277 L 244 276 L 243 276 L 242 276 L 241 275 L 240 275 L 239 275 L 238 275 L 237 275 L 236 275 L 235 275 L 234 275 L 233 275 Z M 228 251 L 227 252 L 226 252 L 225 252 L 224 253 L 223 253 L 222 254 L 221 255 L 220 256 L 219 257 L 218 258 L 218 259 L 218 260 L 218 261 L 219 262 L 220 262 L 221 262 L 222 261 L 223 260 L 224 259 L 225 258 L 226 257 L 227 257 L 228 256 L 229 256 L 230 255 L 231 255 L 232 255 L 233 255 L 234 256 L 235 256 L 236 256 L 236 255 L 236 254 L 235 253 L 234 252 L 233 252 L 232 252 L 231 251 L 230 251 L 229 251 Z M 129 245 L 128 246 L 127 246 L 126 246 L 125 247 L 124 248 L 123 249 L 122 250 L 121 251 L 120 252 L 120 253 L 119 254 L 119 255 L 119 256 L 119 257 L 118 258 L 118 259 L 118 260 L 118 261 L 117 262 L 117 263 L 117 264 L 117 265 L 117 266 L 117 267 L 117 268 L 117 269 L 118 270 L 118 271 L 119 272 L 120 273 L 120 274 L 121 275 L 122 276 L 123 277 L 124 277 L 125 278 L 126 279 L 127 279 L 128 280 L 129 280 L 130 281 L 131 281 L 132 282 L 133 282 L 134 282 L 135 283 L 136 283 L 137 283 L 138 283 L 139 283 L 140 284 L 141 284 L 142 284 L 143 284 L 144 284 L 145 284 L 146 284 L 147 283 L 148 283 L 149 283 L 150 283 L 151 282 L 152 282 L 153 282 L 154 282 L 155 281 L 156 281 L 157 281 L 158 281 L 159 280 L 160 280 L 161 280 L 162 279 L 163 279 L 164 279 L 165 278 L 166 278 L 167 277 L 168 277 L 169 276 L 170 276 L 171 275 L 172 274 L 173 274 L 174 273 L 175 272 L 176 272 L 177 271 L 178 270 L 179 269 L 180 268 L 181 267 L 181 266 L 182 265 L 182 264 L 182 263 L 183 262 L 183 261 L 183 260 L 183 259 L 183 258 L 183 257 L 182 256 L 182 255 L 181 255 L 180 254 L 179 254 L 178 254 L 177 253 L 176 253 L 175 253 L 174 253 L 173 252 L 172 252 L 171 252 L 170 252 L 169 252 L 168 252 L 167 252 L 166 251 L 165 251 L 164 251 L 163 251 L 162 250 L 161 250 L 160 250 L 159 249 L 158 249 L 157 249 L 156 248 L 155 248 L 154 248 L 153 248 L 152 248 L 151 247 L 150 247 L 149 247 L 148 247 L 147 247 L 146 247 L 145 247 L 144 246 L 143 246 L 142 246 L 141 246 L 140 246 L 139 245 L 138 245 L 137 245 L 136 245 L 135 245 L 134 245 L 133 245 L 132 245 L 131 245 L 130 245 Z M 163 258 L 164 257 L 165 257 L 166 257 L 167 258 L 168 259 L 168 260 L 167 261 L 166 261 L 165 261 L 164 261 L 163 261 L 162 260 L 161 259 L 162 258 Z M 130 254 L 131 253 L 132 253 L 133 253 L 134 253 L 135 253 L 136 253 L 137 253 L 138 254 L 139 255 L 140 256 L 140 257 L 140 258 L 140 259 L 140 260 L 140 261 L 140 262 L 140 263 L 141 264 L 141 265 L 141 266 L 142 267 L 142 268 L 143 269 L 144 270 L 145 271 L 146 271 L 147 272 L 148 272 L 149 272 L 150 273 L 150 274 L 150 275 L 149 276 L 148 277 L 147 277 L 146 278 L 145 278 L 144 278 L 143 278 L 142 278 L 141 278 L 140 278 L 139 278 L 138 277 L 137 277 L 136 277 L 135 276 L 134 276 L 133 275 L 132 275 L 131 275 L 130 274 L 129 274 L 128 273 L 127 272 L 126 271 L 125 270 L 125 269 L 124 268 L 124 267 L 124 266 L 124 265 L 124 264 L 124 263 L 124 262 L 124 261 L 125 260 L 125 259 L 126 258 L 126 257 L 127 256 L 128 255 L 129 254 Z M 197 0 L 196 1 L 195 1 L 194 1 L 193 1 L 192 1 L 191 2 L 190 2 L 189 3 L 188 3 L 187 4 L 186 4 L 185 5 L 184 5 L 183 6 L 182 7 L 181 7 L 180 8 L 179 8 L 178 9 L 177 9 L 176 10 L 175 10 L 174 10 L 173 11 L 172 11 L 171 11 L 170 12 L 169 12 L 168 12 L 167 12 L 166 12 L 165 13 L 164 13 L 163 13 L 162 13 L 161 13 L 160 13 L 159 13 L 158 13 L 157 13 L 156 13 L 155 12 L 154 12 L 153 12 L 152 12 L 151 12 L 150 12 L 149 11 L 148 11 L 147 11 L 146 11 L 145 11 L 144 11 L 143 11 L 142 11 L 141 11 L 140 11 L 139 11 L 138 11 L 137 11 L 136 12 L 135 12 L 134 12 L 133 12 L 132 12 L 131 12 L 130 12 L 129 12 L 128 12 L 127 12 L 126 12 L 125 12 L 124 12 L 123 12 L 122 12 L 121 12 L 120 12 L 119 12 L 118 12 L 117 12 L 116 12 L 115 12 L 114 12 L 113 13 L 112 13 L 111 13 L 110 13 L 109 13 L 108 13 L 107 13 L 106 13 L 105 13 L 104 13 L 103 13 L 102 14 L 101 14 L 100 14 L 99 14 L 98 15 L 97 15 L 96 15 L 95 15 L 94 16 L 93 16 L 92 16 L 91 17 L 90 17 L 89 17 L 88 18 L 87 18 L 86 18 L 85 19 L 84 19 L 83 20 L 82 21 L 81 21 L 80 22 L 79 23 L 79 24 L 79 25 L 79 26 L 79 27 L 80 28 L 80 29 L 80 30 L 81 31 L 81 32 L 81 33 L 81 34 L 81 35 L 81 36 L 81 37 L 80 38 L 79 39 L 78 40 L 77 41 L 76 41 L 75 42 L 74 42 L 73 43 L 72 44 L 71 45 L 70 45 L 69 46 L 68 47 L 67 48 L 66 49 L 65 49 L 64 50 L 63 51 L 62 52 L 61 53 L 60 54 L 59 55 L 58 56 L 57 57 L 56 58 L 55 59 L 54 60 L 53 61 L 52 62 L 51 63 L 50 64 L 49 65 L 48 66 L 47 67 L 46 68 L 45 69 L 44 70 L 44 71 L 43 72 L 42 73 L 42 74 L 41 75 L 40 76 L 40 77 L 39 78 L 38 79 L 38 80 L 37 81 L 37 82 L 36 83 L 35 84 L 35 85 L 34 86 L 33 87 L 33 88 L 32 89 L 32 90 L 32 91 L 31 92 L 31 93 L 31 94 L 31 95 L 31 96 L 30 97 L 30 98 L 30 99 L 29 100 L 29 101 L 28 102 L 28 103 L 27 104 L 27 105 L 26 106 L 25 107 L 25 108 L 24 109 L 24 110 L 23 111 L 22 112 L 22 113 L 21 114 L 20 115 L 19 116 L 18 117 L 17 118 L 17 119 L 16 120 L 16 121 L 15 122 L 15 123 L 15 124 L 14 125 L 14 126 L 13 127 L 13 128 L 13 129 L 12 130 L 12 131 L 11 132 L 11 133 L 10 134 L 10 135 L 9 136 L 8 137 L 8 138 L 7 139 L 6 140 L 5 141 L 4 142 L 3 143 L 2 144 L 1 145 L 1 146 L 1 147 L 0 148 L 0 149 L 1 150 L 1 151 L 1 152 L 2 153 L 2 154 L 3 155 L 4 156 L 5 157 L 6 158 L 7 159 L 8 160 L 9 161 L 10 162 L 11 163 L 12 164 L 12 165 L 12 166 L 12 167 L 12 168 L 12 169 L 12 170 L 12 171 L 12 172 L 11 173 L 11 174 L 11 175 L 11 176 L 11 177 L 11 178 L 11 179 L 11 180 L 11 181 L 11 182 L 12 183 L 12 184 L 12 185 L 12 186 L 13 187 L 13 188 L 13 189 L 14 190 L 14 191 L 15 192 L 15 193 L 16 194 L 17 195 L 17 196 L 18 197 L 19 198 L 19 199 L 20 200 L 20 201 L 21 202 L 21 203 L 22 204 L 22 205 L 23 206 L 23 207 L 24 208 L 24 209 L 25 210 L 25 211 L 26 212 L 26 213 L 26 214 L 27 215 L 27 216 L 27 217 L 27 218 L 27 219 L 27 220 L 27 221 L 27 222 L 27 223 L 27 224 L 27 225 L 27 226 L 27 227 L 27 228 L 27 229 L 27 230 L 27 231 L 27 232 L 27 233 L 27 234 L 27 235 L 27 236 L 26 237 L 26 238 L 26 239 L 26 240 L 26 241 L 25 242 L 25 243 L 25 244 L 24 245 L 24 246 L 24 247 L 24 248 L 23 249 L 24 250 L 24 251 L 24 252 L 25 253 L 26 254 L 27 255 L 28 256 L 29 256 L 30 257 L 31 258 L 32 258 L 33 259 L 34 259 L 35 260 L 36 260 L 37 261 L 38 261 L 39 262 L 40 262 L 41 263 L 42 263 L 43 263 L 44 263 L 45 264 L 46 264 L 47 264 L 48 264 L 49 264 L 50 264 L 51 265 L 51 266 L 51 267 L 51 268 L 51 269 L 51 270 L 51 271 L 51 272 L 51 273 L 51 274 L 51 275 L 51 276 L 51 277 L 51 278 L 51 279 L 51 280 L 52 281 L 52 282 L 52 283 L 52 284 L 52 285 L 53 286 L 53 287 L 54 288 L 54 289 L 55 290 L 56 291 L 57 291 L 58 292 L 59 293 L 60 294 L 60 295 L 61 296 L 62 297 L 63 298 L 64 299 L 65 299 L 66 300 L 67 301 L 68 301 L 69 302 L 70 302 L 71 303 L 72 303 L 73 304 L 74 304 L 75 304 L 76 305 L 77 306 L 78 307 L 79 307 L 80 308 L 81 309 L 82 310 L 82 311 L 83 312 L 84 313 L 85 314 L 86 315 L 86 316 L 87 317 L 87 318 L 88 319 L 88 320 L 89 321 L 90 321 L 91 322 L 92 322 L 93 322 L 94 321 L 95 321 L 96 320 L 97 319 L 98 318 L 99 317 L 100 316 L 101 315 L 102 314 L 103 315 L 104 316 L 105 317 L 106 318 L 107 319 L 108 320 L 109 321 L 110 322 L 111 323 L 111 324 L 112 325 L 113 326 L 114 327 L 115 328 L 116 328 L 117 328 L 118 328 L 119 328 L 120 328 L 121 327 L 122 327 L 123 326 L 124 325 L 125 324 L 126 323 L 127 323 L 128 322 L 129 321 L 130 320 L 131 319 L 132 318 L 133 317 L 134 316 L 135 315 L 136 315 L 137 315 L 138 316 L 139 316 L 140 316 L 141 317 L 142 317 L 143 317 L 144 318 L 145 318 L 146 318 L 147 318 L 148 319 L 149 319 L 150 319 L 151 319 L 152 320 L 153 320 L 154 320 L 155 320 L 156 321 L 157 321 L 158 321 L 159 321 L 160 322 L 161 322 L 162 322 L 163 322 L 164 323 L 165 323 L 166 323 L 167 323 L 168 323 L 169 323 L 170 323 L 171 323 L 172 323 L 173 323 L 174 323 L 175 324 L 176 324 L 177 324 L 178 324 L 179 324 L 180 324 L 181 324 L 182 324 L 183 324 L 184 324 L 185 324 L 186 325 L 187 325 L 188 325 L 189 325 L 190 325 L 191 325 L 192 325 L 193 325 L 194 325 L 195 325 L 196 325 L 197 325 L 198 325 L 199 325 L 200 325 L 201 325 L 202 325 L 203 324 L 204 324 L 205 324 L 206 324 L 207 324 L 208 324 L 209 324 L 210 324 L 211 324 L 212 323 L 213 323 L 214 323 L 215 323 L 216 323 L 217 323 L 218 323 L 219 322 L 220 322 L 221 322 L 222 321 L 223 321 L 224 321 L 225 321 L 226 320 L 227 320 L 228 320 L 229 319 L 230 319 L 231 319 L 232 319 L 233 319 L 234 318 L 235 318 L 236 318 L 237 318 L 238 317 L 239 317 L 240 317 L 241 317 L 242 316 L 243 316 L 244 316 L 245 315 L 246 315 L 247 314 L 248 314 L 249 314 L 250 313 L 251 313 L 252 312 L 253 312 L 254 312 L 255 311 L 256 311 L 257 310 L 258 310 L 259 310 L 260 309 L 261 309 L 262 308 L 263 308 L 264 307 L 265 307 L 266 307 L 267 306 L 268 306 L 269 305 L 270 305 L 271 304 L 272 304 L 273 303 L 274 303 L 275 302 L 276 302 L 277 301 L 278 301 L 279 300 L 280 300 L 281 299 L 282 298 L 283 298 L 284 297 L 285 297 L 286 296 L 287 295 L 288 295 L 289 294 L 290 293 L 291 292 L 292 291 L 293 290 L 294 289 L 295 288 L 296 287 L 296 286 L 297 285 L 298 284 L 299 283 L 300 282 L 301 281 L 301 280 L 302 279 L 303 278 L 303 277 L 304 276 L 304 275 L 305 274 L 305 273 L 306 272 L 306 271 L 307 270 L 307 269 L 307 268 L 308 267 L 308 266 L 308 265 L 309 264 L 309 263 L 309 262 L 310 261 L 310 260 L 310 259 L 310 258 L 311 257 L 311 256 L 311 255 L 311 254 L 311 253 L 311 252 L 311 251 L 311 250 L 311 249 L 311 248 L 311 247 L 311 246 L 311 245 L 311 244 L 311 243 L 311 242 L 310 241 L 310 240 L 310 239 L 310 238 L 309 237 L 309 236 L 309 235 L 309 234 L 310 233 L 311 233 L 312 233 L 313 232 L 314 231 L 315 231 L 316 230 L 317 229 L 318 228 L 318 227 L 319 226 L 320 225 L 321 224 L 321 223 L 322 222 L 323 221 L 323 220 L 323 219 L 324 218 L 324 217 L 324 216 L 324 215 L 325 214 L 325 213 L 325 212 L 325 211 L 325 210 L 325 209 L 325 208 L 325 207 L 325 206 L 324 205 L 324 204 L 324 203 L 324 202 L 323 201 L 323 200 L 323 199 L 323 198 L 323 197 L 324 196 L 325 195 L 326 194 L 327 194 L 328 193 L 329 193 L 330 192 L 331 192 L 332 191 L 333 191 L 334 190 L 335 189 L 336 188 L 337 187 L 338 186 L 339 185 L 339 184 L 340 183 L 340 182 L 341 181 L 341 180 L 341 179 L 341 178 L 342 177 L 342 176 L 342 175 L 341 174 L 341 173 L 340 172 L 339 172 L 338 171 L 337 171 L 336 170 L 335 169 L 334 168 L 333 167 L 332 166 L 331 165 L 330 164 L 329 163 L 328 162 L 327 161 L 326 161 L 325 160 L 324 159 L 324 158 L 323 157 L 323 156 L 323 155 L 322 154 L 322 153 L 322 152 L 322 151 L 322 150 L 321 149 L 321 148 L 321 147 L 321 146 L 321 145 L 321 144 L 320 143 L 320 142 L 320 141 L 320 140 L 320 139 L 320 138 L 320 137 L 320 136 L 320 135 L 320 134 L 320 133 L 319 132 L 319 131 L 319 130 L 319 129 L 319 128 L 319 127 L 319 126 L 318 125 L 318 124 L 318 123 L 318 122 L 318 121 L 318 120 L 317 119 L 317 118 L 317 117 L 317 116 L 317 115 L 316 114 L 316 113 L 316 112 L 316 111 L 315 110 L 315 109 L 315 108 L 315 107 L 315 106 L 314 105 L 314 104 L 314 103 L 314 102 L 313 101 L 313 100 L 312 99 L 312 98 L 311 97 L 311 96 L 310 95 L 310 94 L 309 93 L 308 92 L 308 91 L 308 90 L 307 89 L 307 88 L 306 87 L 305 86 L 305 85 L 304 84 L 303 83 L 303 82 L 302 81 L 302 80 L 302 79 L 303 78 L 303 77 L 304 76 L 304 75 L 304 74 L 305 73 L 305 72 L 305 71 L 305 70 L 305 69 L 306 68 L 306 67 L 306 66 L 306 65 L 306 64 L 306 63 L 306 62 L 306 61 L 305 60 L 305 59 L 305 58 L 304 57 L 303 57 L 302 57 L 301 57 L 300 57 L 299 57 L 298 57 L 297 57 L 296 57 L 295 57 L 294 57 L 293 57 L 292 56 L 291 55 L 290 54 L 289 53 L 288 52 L 287 51 L 286 50 L 285 49 L 284 49 L 283 48 L 282 48 L 281 47 L 280 47 L 279 46 L 278 45 L 277 45 L 276 44 L 275 44 L 274 43 L 273 43 L 272 42 L 271 42 L 270 41 L 269 41 L 268 40 L 267 40 L 266 39 L 265 39 L 264 38 L 263 38 L 262 37 L 261 37 L 260 37 L 259 36 L 258 36 L 257 35 L 256 35 L 255 35 L 254 34 L 253 34 L 252 34 L 251 33 L 250 33 L 249 33 L 248 32 L 247 32 L 246 32 L 245 31 L 244 31 L 243 30 L 242 29 L 241 29 L 240 28 L 239 27 L 238 26 L 237 26 L 236 25 L 235 25 L 234 24 L 233 24 L 232 23 L 231 23 L 230 22 L 229 22 L 228 22 L 227 21 L 226 21 L 225 21 L 224 20 L 223 20 L 222 20 L 221 19 L 220 19 L 219 18 L 218 18 L 217 17 L 217 16 L 217 15 L 216 14 L 216 13 L 216 12 L 215 11 L 215 10 L 214 9 L 213 8 L 212 7 L 211 6 L 210 6 L 209 5 L 208 4 L 207 4 L 206 3 L 205 2 L 204 1 L 203 1 L 202 1 L 201 0 L 200 0 L 199 0 L 198 0 Z M 269 226 L 270 225 L 271 226 L 272 227 L 272 228 L 272 229 L 273 230 L 274 231 L 274 232 L 275 233 L 276 234 L 277 234 L 278 235 L 279 235 L 280 236 L 281 236 L 282 236 L 283 237 L 284 238 L 284 239 L 283 240 L 282 241 L 281 241 L 280 242 L 279 242 L 278 242 L 277 242 L 276 242 L 275 242 L 274 242 L 273 242 L 272 242 L 271 242 L 270 242 L 269 242 L 268 242 L 267 242 L 266 242 L 265 242 L 264 242 L 263 241 L 262 240 L 262 239 L 262 238 L 262 237 L 263 236 L 263 235 L 264 234 L 264 233 L 264 232 L 265 231 L 265 230 L 266 229 L 266 228 L 267 227 L 268 226 Z M 57 216 L 58 215 L 59 216 L 60 217 L 60 218 L 60 219 L 60 220 L 60 221 L 60 222 L 60 223 L 59 224 L 59 225 L 59 226 L 59 227 L 60 228 L 60 229 L 60 230 L 60 231 L 60 232 L 60 233 L 59 234 L 58 235 L 57 235 L 56 236 L 55 236 L 54 236 L 53 237 L 52 237 L 51 237 L 50 237 L 49 237 L 48 236 L 49 235 L 50 234 L 51 233 L 52 232 L 53 231 L 53 230 L 54 229 L 55 228 L 55 227 L 55 226 L 56 225 L 56 224 L 56 223 L 56 222 L 56 221 L 56 220 L 56 219 L 56 218 L 57 217 Z M 281 215 L 282 214 L 283 214 L 284 214 L 285 215 L 285 216 L 284 217 L 283 217 L 282 217 L 281 217 L 280 216 Z M 87 211 L 88 210 L 89 211 L 89 212 L 89 213 L 89 214 L 89 215 L 89 216 L 88 217 L 88 218 L 87 219 L 87 220 L 86 221 L 85 220 L 85 219 L 85 218 L 85 217 L 85 216 L 85 215 L 86 214 L 86 213 L 86 212 Z M 190 206 L 191 205 L 192 206 L 192 207 L 192 208 L 192 209 L 192 210 L 192 211 L 192 212 L 192 213 L 191 214 L 190 215 L 189 216 L 188 216 L 187 216 L 186 215 L 186 214 L 186 213 L 186 212 L 186 211 L 187 210 L 188 209 L 189 208 L 189 207 Z M 114 193 L 115 192 L 116 192 L 117 193 L 117 194 L 117 195 L 116 196 L 116 197 L 116 198 L 115 199 L 115 200 L 114 201 L 114 202 L 114 203 L 114 204 L 113 205 L 113 206 L 113 207 L 112 208 L 112 209 L 112 210 L 112 211 L 112 212 L 112 213 L 112 214 L 111 215 L 110 216 L 109 215 L 109 214 L 109 213 L 109 212 L 109 211 L 109 210 L 110 209 L 110 208 L 110 207 L 110 206 L 110 205 L 110 204 L 111 203 L 111 202 L 111 201 L 111 200 L 112 199 L 112 198 L 112 197 L 112 196 L 113 195 L 113 194 Z M 285 191 L 286 190 L 287 190 L 288 191 L 289 191 L 290 192 L 290 193 L 291 194 L 292 195 L 292 196 L 292 197 L 292 198 L 293 199 L 293 200 L 293 201 L 293 202 L 293 203 L 293 204 L 293 205 L 293 206 L 293 207 L 292 208 L 291 209 L 290 209 L 289 208 L 288 208 L 287 207 L 286 207 L 285 207 L 284 206 L 283 206 L 282 206 L 281 206 L 280 206 L 279 206 L 278 206 L 277 206 L 276 207 L 275 207 L 274 208 L 273 209 L 272 210 L 271 211 L 270 212 L 269 213 L 268 214 L 267 215 L 266 216 L 265 217 L 265 218 L 264 219 L 264 220 L 263 221 L 262 222 L 262 223 L 261 224 L 261 225 L 260 226 L 259 227 L 259 228 L 258 229 L 257 230 L 257 231 L 256 232 L 256 233 L 256 234 L 255 235 L 255 236 L 255 237 L 255 238 L 255 239 L 255 240 L 256 241 L 256 242 L 256 243 L 257 244 L 258 245 L 259 246 L 260 246 L 261 247 L 262 247 L 263 247 L 264 247 L 265 247 L 266 247 L 267 247 L 268 247 L 269 247 L 270 247 L 271 247 L 272 247 L 273 247 L 274 247 L 275 248 L 276 248 L 277 247 L 278 247 L 279 247 L 280 247 L 281 247 L 282 246 L 283 246 L 284 246 L 285 245 L 286 244 L 287 244 L 288 243 L 289 242 L 290 241 L 290 240 L 291 239 L 291 238 L 292 237 L 292 236 L 292 235 L 292 234 L 293 233 L 293 232 L 293 231 L 293 230 L 294 229 L 294 228 L 294 227 L 295 226 L 296 227 L 296 228 L 297 229 L 298 230 L 298 231 L 298 232 L 299 233 L 299 234 L 300 235 L 300 236 L 301 237 L 301 238 L 301 239 L 302 240 L 302 241 L 302 242 L 303 243 L 303 244 L 303 245 L 303 246 L 303 247 L 304 248 L 304 249 L 304 250 L 304 251 L 304 252 L 304 253 L 304 254 L 304 255 L 303 256 L 303 257 L 303 258 L 303 259 L 303 260 L 302 261 L 302 262 L 302 263 L 301 264 L 301 265 L 300 266 L 300 267 L 299 268 L 298 269 L 298 270 L 297 271 L 296 272 L 296 273 L 295 274 L 294 275 L 293 276 L 292 277 L 291 278 L 291 279 L 290 280 L 289 281 L 288 282 L 287 283 L 286 284 L 285 285 L 284 286 L 283 287 L 282 287 L 281 288 L 280 289 L 279 290 L 278 290 L 277 291 L 276 291 L 275 292 L 274 293 L 273 293 L 272 294 L 271 294 L 270 295 L 269 296 L 268 296 L 267 297 L 266 297 L 265 298 L 264 299 L 263 299 L 262 300 L 261 300 L 260 301 L 259 301 L 258 302 L 257 302 L 256 303 L 255 303 L 254 304 L 253 304 L 252 305 L 251 305 L 250 306 L 249 306 L 248 307 L 247 307 L 246 308 L 245 308 L 244 308 L 243 309 L 242 309 L 241 309 L 240 310 L 239 310 L 238 310 L 237 310 L 236 310 L 235 311 L 234 311 L 233 311 L 232 311 L 231 311 L 230 311 L 229 312 L 228 312 L 227 312 L 226 312 L 225 312 L 224 313 L 223 313 L 222 313 L 221 313 L 220 313 L 219 314 L 218 314 L 217 314 L 216 314 L 215 315 L 214 315 L 213 315 L 212 315 L 211 315 L 210 316 L 209 316 L 208 316 L 207 316 L 206 316 L 205 316 L 204 316 L 203 316 L 202 316 L 201 316 L 200 316 L 199 317 L 198 317 L 197 317 L 196 317 L 195 317 L 194 317 L 193 317 L 192 317 L 191 317 L 190 317 L 189 317 L 188 317 L 187 316 L 186 316 L 185 316 L 184 316 L 183 316 L 182 316 L 181 316 L 180 316 L 179 316 L 178 316 L 177 316 L 176 316 L 175 316 L 174 316 L 173 316 L 172 316 L 171 316 L 170 315 L 169 315 L 168 315 L 167 315 L 166 315 L 165 315 L 164 315 L 163 315 L 162 315 L 161 315 L 160 314 L 159 314 L 158 314 L 157 314 L 156 314 L 155 313 L 154 313 L 153 313 L 152 313 L 151 312 L 150 312 L 149 312 L 148 312 L 147 311 L 146 311 L 145 311 L 144 310 L 143 310 L 142 310 L 141 309 L 140 309 L 139 309 L 138 308 L 137 308 L 136 307 L 135 307 L 134 307 L 133 306 L 132 306 L 131 305 L 130 305 L 129 304 L 128 303 L 127 303 L 126 302 L 125 301 L 124 300 L 123 300 L 122 299 L 121 298 L 120 297 L 119 297 L 118 296 L 117 296 L 116 296 L 115 295 L 114 294 L 113 293 L 112 292 L 111 291 L 110 290 L 109 289 L 108 288 L 107 287 L 106 286 L 105 285 L 105 284 L 104 283 L 103 282 L 103 281 L 102 280 L 101 279 L 101 278 L 100 277 L 99 276 L 99 275 L 98 274 L 97 273 L 96 272 L 95 271 L 94 271 L 93 272 L 93 273 L 93 274 L 93 275 L 93 276 L 93 277 L 93 278 L 93 279 L 94 280 L 94 281 L 95 282 L 95 283 L 96 284 L 96 285 L 97 286 L 97 287 L 98 288 L 98 289 L 98 290 L 98 291 L 98 292 L 97 293 L 96 294 L 95 295 L 94 296 L 93 296 L 92 297 L 91 297 L 90 297 L 89 297 L 88 297 L 87 297 L 86 297 L 85 297 L 84 297 L 83 297 L 82 297 L 81 297 L 80 297 L 79 296 L 78 296 L 77 296 L 76 296 L 75 295 L 74 295 L 73 294 L 72 293 L 71 293 L 70 292 L 69 291 L 68 290 L 67 289 L 66 288 L 65 287 L 65 286 L 64 285 L 64 284 L 63 283 L 63 282 L 62 281 L 62 280 L 62 279 L 61 278 L 61 277 L 61 276 L 61 275 L 61 274 L 60 273 L 60 272 L 60 271 L 60 270 L 60 269 L 60 268 L 60 267 L 61 266 L 61 265 L 61 264 L 62 263 L 62 262 L 63 261 L 63 260 L 64 259 L 65 258 L 66 257 L 67 256 L 68 255 L 69 255 L 70 254 L 71 253 L 72 253 L 73 253 L 74 252 L 75 252 L 76 251 L 77 251 L 78 251 L 79 251 L 80 251 L 81 251 L 82 252 L 83 252 L 84 253 L 85 254 L 86 255 L 87 255 L 88 256 L 89 256 L 90 256 L 91 257 L 92 258 L 93 259 L 94 260 L 95 260 L 96 261 L 97 260 L 98 260 L 99 259 L 100 258 L 100 257 L 101 256 L 102 255 L 103 254 L 103 253 L 104 252 L 105 251 L 105 250 L 106 249 L 106 248 L 107 247 L 107 246 L 108 245 L 108 244 L 109 243 L 109 242 L 109 241 L 110 240 L 110 239 L 110 238 L 111 237 L 111 236 L 112 235 L 112 234 L 113 233 L 114 232 L 115 232 L 116 233 L 117 233 L 118 234 L 119 235 L 120 236 L 121 237 L 122 238 L 123 238 L 124 238 L 125 238 L 126 238 L 127 238 L 128 238 L 129 237 L 130 237 L 131 236 L 132 236 L 133 235 L 134 234 L 135 234 L 136 233 L 137 233 L 138 232 L 139 231 L 140 231 L 141 230 L 142 230 L 143 229 L 144 229 L 145 228 L 146 227 L 147 226 L 148 225 L 149 224 L 150 223 L 151 222 L 151 221 L 152 220 L 153 219 L 154 218 L 155 217 L 156 216 L 157 216 L 158 216 L 159 217 L 160 217 L 161 218 L 162 218 L 163 219 L 164 219 L 165 219 L 166 219 L 167 220 L 168 220 L 169 220 L 170 220 L 171 221 L 172 221 L 173 222 L 174 222 L 175 223 L 176 223 L 177 224 L 178 224 L 179 224 L 180 224 L 181 225 L 182 225 L 183 225 L 184 226 L 185 226 L 186 227 L 187 227 L 188 228 L 189 228 L 190 229 L 191 229 L 192 230 L 193 230 L 194 231 L 195 231 L 196 232 L 197 232 L 198 232 L 199 232 L 200 231 L 201 231 L 202 231 L 203 231 L 204 230 L 205 230 L 206 230 L 207 230 L 208 229 L 209 229 L 210 229 L 211 228 L 212 228 L 213 228 L 214 227 L 215 227 L 216 226 L 217 226 L 218 225 L 219 225 L 220 224 L 221 223 L 222 223 L 223 222 L 224 221 L 225 221 L 226 220 L 227 219 L 228 218 L 229 218 L 230 217 L 231 216 L 232 215 L 233 214 L 234 213 L 235 212 L 235 211 L 236 210 L 237 209 L 238 208 L 239 207 L 240 206 L 241 205 L 242 204 L 242 203 L 243 202 L 244 201 L 245 200 L 246 200 L 247 201 L 247 202 L 247 203 L 248 204 L 248 205 L 249 206 L 250 206 L 251 207 L 252 207 L 253 207 L 254 207 L 255 207 L 256 207 L 257 207 L 258 206 L 259 206 L 260 206 L 261 205 L 262 205 L 263 204 L 264 204 L 265 203 L 266 203 L 267 202 L 268 202 L 269 201 L 270 201 L 271 200 L 272 199 L 273 198 L 274 197 L 275 196 L 276 196 L 277 195 L 278 194 L 279 193 L 280 193 L 281 192 L 282 192 L 283 191 L 284 191 Z M 213 191 L 214 190 L 215 191 L 215 192 L 215 193 L 215 194 L 215 195 L 215 196 L 215 197 L 214 198 L 214 199 L 215 200 L 215 201 L 215 202 L 215 203 L 214 204 L 214 205 L 214 206 L 214 207 L 214 208 L 214 209 L 214 210 L 214 211 L 213 212 L 212 213 L 211 213 L 210 214 L 209 213 L 208 212 L 208 211 L 208 210 L 208 209 L 209 208 L 210 207 L 210 206 L 210 205 L 210 204 L 210 203 L 211 202 L 211 201 L 211 200 L 211 199 L 211 198 L 211 197 L 211 196 L 211 195 L 211 194 L 212 193 L 212 192 Z M 300 187 L 301 186 L 302 186 L 303 186 L 304 187 L 305 187 L 306 187 L 307 188 L 308 188 L 309 189 L 310 190 L 311 191 L 312 192 L 312 193 L 313 194 L 313 195 L 314 196 L 314 197 L 315 198 L 316 199 L 317 200 L 317 201 L 317 202 L 317 203 L 318 204 L 318 205 L 317 206 L 317 207 L 317 208 L 317 209 L 317 210 L 317 211 L 317 212 L 317 213 L 317 214 L 317 215 L 317 216 L 316 217 L 316 218 L 315 219 L 314 220 L 314 221 L 313 222 L 312 222 L 311 223 L 310 223 L 309 223 L 308 224 L 307 224 L 306 224 L 305 224 L 304 223 L 303 222 L 302 221 L 301 220 L 301 219 L 300 218 L 300 217 L 300 216 L 300 215 L 299 214 L 299 213 L 300 212 L 300 211 L 300 210 L 300 209 L 300 208 L 300 207 L 300 206 L 300 205 L 300 204 L 300 203 L 300 202 L 300 201 L 299 200 L 299 199 L 299 198 L 299 197 L 298 196 L 298 195 L 298 194 L 297 193 L 297 192 L 297 191 L 297 190 L 298 189 L 298 188 L 299 187 Z M 262 177 L 263 176 L 264 177 L 265 178 L 265 179 L 264 180 L 264 181 L 263 182 L 263 183 L 263 184 L 262 185 L 262 186 L 261 187 L 260 188 L 259 189 L 258 188 L 258 187 L 258 186 L 259 185 L 259 184 L 260 183 L 260 182 L 260 181 L 260 180 L 260 179 L 261 178 Z M 308 167 L 309 166 L 310 166 L 311 166 L 312 166 L 313 166 L 314 167 L 315 167 L 316 167 L 317 167 L 318 168 L 319 169 L 319 170 L 319 171 L 318 172 L 317 172 L 316 172 L 315 172 L 314 172 L 313 172 L 312 172 L 311 171 L 310 170 L 309 169 L 308 168 Z M 74 166 L 75 165 L 76 165 L 77 166 L 76 167 L 75 168 L 75 169 L 74 170 L 74 171 L 74 172 L 74 173 L 73 174 L 72 175 L 71 176 L 71 177 L 71 178 L 71 179 L 70 180 L 70 181 L 70 182 L 70 183 L 69 184 L 69 185 L 69 186 L 69 187 L 69 188 L 69 189 L 69 190 L 69 191 L 68 192 L 68 193 L 67 194 L 66 195 L 65 196 L 64 197 L 63 196 L 63 195 L 63 194 L 64 193 L 64 192 L 65 191 L 65 190 L 65 189 L 65 188 L 66 187 L 66 186 L 66 185 L 66 184 L 66 183 L 67 182 L 67 181 L 67 180 L 67 179 L 68 178 L 68 177 L 68 176 L 69 175 L 69 174 L 69 173 L 70 172 L 70 171 L 71 170 L 71 169 L 72 168 L 73 167 Z M 38 166 L 39 165 L 40 166 L 40 167 L 40 168 L 40 169 L 40 170 L 39 171 L 40 172 L 40 173 L 39 174 L 38 175 L 37 174 L 37 173 L 36 172 L 36 171 L 37 170 L 37 169 L 37 168 L 37 167 Z M 293 144 L 294 143 L 295 144 L 295 145 L 295 146 L 295 147 L 295 148 L 295 149 L 295 150 L 295 151 L 294 152 L 294 153 L 294 154 L 293 155 L 292 156 L 291 156 L 290 155 L 289 154 L 289 153 L 289 152 L 290 151 L 291 150 L 291 149 L 292 148 L 292 147 L 292 146 L 293 145 Z M 159 144 L 160 143 L 161 144 L 161 145 L 161 146 L 161 147 L 160 148 L 159 149 L 159 150 L 159 151 L 159 152 L 159 153 L 158 154 L 158 155 L 158 156 L 157 157 L 156 158 L 156 159 L 155 160 L 155 161 L 154 162 L 153 163 L 153 164 L 152 165 L 152 166 L 152 167 L 152 168 L 152 169 L 151 170 L 151 171 L 150 172 L 150 173 L 150 174 L 150 175 L 150 176 L 150 177 L 149 178 L 149 179 L 149 180 L 149 181 L 150 182 L 150 183 L 149 184 L 149 185 L 148 186 L 147 187 L 146 187 L 145 186 L 145 185 L 145 184 L 145 183 L 145 182 L 146 181 L 146 180 L 146 179 L 146 178 L 146 177 L 146 176 L 146 175 L 147 174 L 147 173 L 147 172 L 148 171 L 148 170 L 148 169 L 149 168 L 149 167 L 149 166 L 149 165 L 149 164 L 149 163 L 150 162 L 150 161 L 150 160 L 150 159 L 150 158 L 151 157 L 151 156 L 152 155 L 152 154 L 153 153 L 154 152 L 155 151 L 155 150 L 155 149 L 156 148 L 157 147 L 157 146 L 158 145 Z M 243 143 L 244 142 L 245 143 L 246 144 L 246 145 L 246 146 L 246 147 L 246 148 L 246 149 L 246 150 L 245 151 L 244 152 L 243 153 L 243 154 L 242 155 L 242 156 L 241 157 L 241 158 L 241 159 L 240 160 L 240 161 L 240 162 L 240 163 L 239 164 L 239 165 L 238 166 L 237 167 L 236 166 L 236 165 L 237 164 L 237 163 L 238 162 L 238 161 L 238 160 L 238 159 L 238 158 L 239 157 L 239 156 L 239 155 L 239 154 L 240 153 L 240 152 L 240 151 L 241 150 L 241 149 L 241 148 L 242 147 L 242 146 L 243 145 L 243 144 Z M 178 140 L 179 139 L 180 140 L 180 141 L 179 142 L 179 143 L 178 144 L 178 145 L 178 146 L 177 147 L 176 148 L 176 149 L 175 150 L 174 149 L 174 148 L 174 147 L 175 146 L 175 145 L 176 144 L 176 143 L 177 142 L 177 141 Z M 105 131 L 106 130 L 107 131 L 106 132 Z M 64 117 L 65 116 L 66 117 L 66 118 L 66 119 L 65 120 L 65 121 L 65 122 L 64 123 L 64 124 L 64 125 L 64 126 L 63 127 L 63 128 L 63 129 L 62 130 L 62 131 L 61 132 L 61 133 L 60 134 L 60 135 L 59 136 L 59 137 L 58 138 L 58 139 L 58 140 L 58 141 L 57 142 L 57 143 L 56 144 L 55 143 L 55 142 L 55 141 L 55 140 L 55 139 L 55 138 L 55 137 L 56 136 L 56 135 L 56 134 L 57 133 L 57 132 L 58 131 L 58 130 L 59 129 L 59 128 L 59 127 L 59 126 L 60 125 L 61 124 L 61 123 L 61 122 L 61 121 L 62 120 L 62 119 L 63 118 L 64 118 Z M 115 112 L 116 111 L 117 112 L 117 113 L 117 114 L 117 115 L 117 116 L 117 117 L 117 118 L 117 119 L 116 120 L 116 121 L 116 122 L 115 123 L 115 124 L 114 125 L 113 125 L 112 126 L 111 126 L 111 127 L 110 128 L 109 129 L 108 130 L 107 131 L 106 130 L 106 129 L 106 128 L 107 127 L 107 126 L 108 125 L 109 124 L 110 123 L 110 122 L 110 121 L 111 120 L 111 119 L 111 118 L 111 117 L 112 116 L 113 115 L 113 114 L 114 113 Z M 231 110 L 232 109 L 233 110 L 234 111 L 234 112 L 234 113 L 233 114 L 233 115 L 232 116 L 231 117 L 230 118 L 230 119 L 230 120 L 230 121 L 230 122 L 229 123 L 228 124 L 227 123 L 227 122 L 227 121 L 227 120 L 227 119 L 227 118 L 228 117 L 228 116 L 229 115 L 229 114 L 230 113 L 230 112 L 231 111 Z M 285 104 L 286 103 L 287 104 L 288 105 L 287 106 L 286 107 L 286 108 L 286 109 L 286 110 L 285 111 L 285 112 L 285 113 L 285 114 L 285 115 L 284 116 L 284 117 L 284 118 L 284 119 L 283 120 L 283 121 L 282 122 L 281 123 L 280 122 L 280 121 L 280 120 L 280 119 L 280 118 L 280 117 L 280 116 L 280 115 L 281 114 L 281 113 L 282 112 L 282 111 L 282 110 L 283 109 L 283 108 L 283 107 L 283 106 L 284 105 Z M 154 99 L 155 98 L 156 98 L 157 99 L 157 100 L 157 101 L 157 102 L 157 103 L 156 104 L 155 105 L 154 105 L 153 104 L 153 103 L 153 102 L 153 101 L 154 100 Z M 219 93 L 220 92 L 221 93 L 221 94 L 221 95 L 221 96 L 221 97 L 220 98 L 219 98 L 218 97 L 218 96 L 219 95 L 219 94 Z M 136 93 L 137 92 L 138 93 L 138 94 L 138 95 L 137 96 L 136 95 L 136 94 Z M 88 82 L 89 81 L 90 82 L 91 83 L 90 84 L 90 85 L 90 86 L 89 87 L 89 88 L 88 89 L 88 90 L 88 91 L 88 92 L 87 93 L 87 94 L 87 95 L 87 96 L 86 97 L 85 98 L 84 98 L 83 97 L 83 96 L 83 95 L 84 94 L 84 93 L 84 92 L 85 91 L 85 90 L 86 89 L 86 88 L 87 87 L 87 86 L 88 85 L 88 84 L 88 83 Z M 68 70 L 69 69 L 70 70 L 70 71 L 70 72 L 69 73 L 69 74 L 68 75 L 68 76 L 68 77 L 68 78 L 67 79 L 66 80 L 65 80 L 64 79 L 64 78 L 64 77 L 65 76 L 65 75 L 66 74 L 66 73 L 67 72 L 67 71 Z M 232 63 L 233 62 L 234 63 L 234 64 L 234 65 L 234 66 L 233 67 L 232 68 L 232 69 L 231 70 L 230 71 L 229 72 L 229 73 L 229 74 L 229 75 L 228 76 L 228 77 L 227 78 L 227 79 L 226 80 L 226 81 L 225 82 L 225 83 L 224 84 L 224 85 L 224 86 L 223 87 L 222 88 L 221 87 L 221 86 L 222 85 L 222 84 L 222 83 L 223 82 L 223 81 L 223 80 L 223 79 L 223 78 L 224 77 L 224 76 L 225 75 L 225 74 L 226 73 L 226 72 L 227 71 L 227 70 L 227 69 L 228 68 L 228 67 L 229 66 L 230 65 L 231 64 Z M 148 63 L 149 62 L 150 63 L 150 64 L 149 65 L 149 66 L 148 67 L 147 68 L 147 69 L 147 70 L 146 71 L 146 72 L 145 73 L 145 74 L 145 75 L 144 76 L 143 77 L 143 78 L 143 79 L 142 80 L 142 81 L 142 82 L 141 83 L 141 84 L 141 85 L 140 86 L 140 87 L 139 88 L 138 89 L 137 88 L 137 87 L 137 86 L 137 85 L 137 84 L 138 83 L 138 82 L 139 81 L 140 80 L 140 79 L 140 78 L 140 77 L 140 76 L 140 75 L 140 74 L 141 73 L 141 72 L 142 71 L 143 70 L 143 69 L 144 68 L 145 67 L 146 66 L 147 65 L 147 64 Z M 132 33 L 133 32 L 134 32 L 135 32 L 136 32 L 137 32 L 138 33 L 139 34 L 139 35 L 138 36 L 138 37 L 137 38 L 136 39 L 135 40 L 134 41 L 133 42 L 132 43 L 132 44 L 131 45 L 130 44 L 130 43 L 130 42 L 130 41 L 131 40 L 132 39 L 132 38 L 132 37 L 132 36 L 132 35 L 132 34 Z" />
  </g>
</svg>
