<?xml version="1.0" encoding="utf-8"?>
<!-- Uploaded to: SVG Repo, www.svgrepo.com, Generator: SVG Repo Mixer Tools -->
<svg fill="#000000" width="800px" height="800px" viewBox="0 0 32 32" version="1.1" xmlns="http://www.w3.org/2000/svg">
<title>footprint</title>
<path d="M16.707 3.79c-0.419 1.062-1.464 1.645-2.334 1.301s-1.236-1.483-0.816-2.545 1.464-1.645 2.334-1.302 1.236 1.483 0.816 2.545zM21.193 5.46c-0.764 1.032-2.069 1.361-2.914 0.734s-0.911-1.97-0.146-3.002 2.069-1.361 2.914-0.734c0.845 0.626 0.911 1.97 0.146 3.002zM25.192 8.225c-0.99 0.959-2.43 1.079-3.215 0.268s-0.62-2.246 0.371-3.205 2.43-1.079 3.215-0.268 0.619 2.246-0.371 3.205zM28.906 14.051c-1.737 0.966-3.787 0.596-4.578-0.827s-0.025-3.359 1.712-4.325 3.787-0.596 4.578 0.827 0.025 3.359-1.712 4.325zM10.525 7.981c-3.809 3.407-7.519 8.305-8.761 16.165-1.451 9.181 9.858 7.521 8.738 2.618-1.43-6.264 2.129-8.805 6.739-7.747 2.049 0.47 4.152-0.306 5.366-2.523 1.46-2.666-0.463-6.665-3.922-8.712-2.697-1.596-5.773-1.935-8.16 0.2l-0 0z"></path>
</svg>