<?xml version="1.0" encoding="iso-8859-1"?>
<!-- Uploaded to: SVG Repo, www.svgrepo.com, Generator: SVG Repo Mixer Tools -->
<!DOCTYPE svg PUBLIC "-//W3C//DTD SVG 1.1//EN" "http://www.w3.org/Graphics/SVG/1.1/DTD/svg11.dtd">
<svg fill="#000000" version="1.1" id="Capa_1" xmlns="http://www.w3.org/2000/svg" xmlns:xlink="http://www.w3.org/1999/xlink" 
	 width="800px" height="800px" viewBox="0 0 577.058 577.058"
	 xml:space="preserve">
<g>
	<g>
		<path d="M464.842,96.756c-12.24-5.508-24.479-1.836-36.107,2.754c-3.366,1.224-2.755-15.912-4.591-22.644
			c-3.978-16.524-25.397-31.824-42.533-29.07c-4.896,0.918-31.824,6.426-30.601,14.994c-2.142-14.382-9.792-26.316-18.666-37.332
			c-39.474-49.266-116.892-19.584-143.514,26.01v0.306c-12.852-16.83-38.25-23.562-57.528-13.77
			c-20.808,10.404-26.928,30.294-22.644,51.102c-21.42-2.142-39.168,9.18-44.676,32.13c-3.978,17.442,4.284,39.474,21.42,45.9
			c-37.944,31.212-35.19,96.39,15.606,115.056c3.978,1.53,35.496,7.956,35.19,8.874c-2.754,12.24,0.918,23.562,6.426,33.966
			c11.016,21.114,38.25,22.95,59.976,18.972c-25.398,28.152,19.278,51.714,49.266,54.774c-2.142,5.202-2.754,10.404-2.448,14.688
			c-21.42-1.836-45.9-0.306-62.424,14.383c-1.224,0.918-1.53,3.06-0.612,4.283c1.224,1.53,2.754,3.061,3.978,4.59
			c-0.612,0.612-0.612,1.837,0,2.755c3.06,3.06,6.12,5.813,9.486,8.567c-40.392,55.692,22.032,138.006,87.21,128.214
			c52.938-7.956,115.057-84.762,72.522-132.191c8.874-7.65,20.502-25.704,7.344-34.578c-18.054-11.935-44.064-6.426-64.872-1.53
			c-0.306-3.366-0.918-6.731-2.448-9.792c18.973,1.836,31.519-23.562,21.727-38.556c18.359-4.59,29.069-23.868,24.174-43.146
			c35.189,13.771,81.09-11.628,64.872-48.654c60.282,27.846,108.018-36.108,107.1-96.39
			C517.781,140.208,491.77,109.302,464.842,96.756z M296.542,563.406c-26.622,9.486-55.692-5.814-74.664-23.256
			c-25.704-23.562-31.518-58.752-18.972-90.271c41.922,31.519,105.264,28.152,148.716,0
			C379.774,493.639,341.524,547.494,296.542,563.406z M301.745,417.139c12.546-2.448,25.092-4.591,37.638-5.509
			c19.584-1.224,18.972,13.158,10.71,24.48c-2.754-0.307-5.202,2.448-4.59,5.202c-1.836,1.836-3.979,3.672-6.12,4.896
			c-7.956,4.896-17.136,8.874-26.01,11.322c-35.802,10.098-82.62,6.12-113.526-16.218c-2.448-3.061-4.284-6.12-5.814-9.486
			c18.36-11.016,37.944-11.322,59.058-9.792c2.448,2.448,5.814,4.59,10.71,5.202c0.306,0.612,0.612,1.224,0.918,1.836
			c8.568,9.486,25.704,8.568,32.742-2.448C299.909,423.564,301.132,420.504,301.745,417.139z M404.254,254.04
			c-5.202-2.448-9.486,4.59-4.59,7.956c0.611,0.306,1.224,0.612,1.836,1.224c22.644,41.616-33.66,57.834-63.648,37.638
			c-3.978-2.754-9.792,2.754-6.731,6.731c16.523,21.42,1.836,51.103-26.622,42.229c-6.12-0.918-8.874,7.649-2.754,9.486
			c25.704,3.978,13.464,38.861-11.322,26.01c-4.896-2.448-8.568,3.978-4.284,7.344c1.224,0.918,2.754,1.836,3.978,2.448
			c0,0.306,0,0.306,0.307,0.611c2.754,4.591,4.59,10.099,4.284,15.301c-0.612,0.918-0.918,2.142-0.612,3.365
			c-0.611,2.143-1.53,3.979-3.06,5.509c-6.426,7.038-13.464,3.672-21.114,1.224c-1.836-0.612-3.366,0-4.59,1.224
			c-2.142-0.918-3.672-1.836-5.202-3.365c0-1.837-0.918-3.979-3.366-4.591c-1.836-4.59-1.224-10.098,2.142-16.83
			c0.918-2.142-0.306-4.59-2.754-4.59c-13.158-0.306-25.704-4.283-37.332-10.403c-20.196-10.71-20.196-25.704-4.896-41.311
			c2.448-2.448-0.918-6.731-3.672-4.59l-0.306,0.306c-35.496,2.754-70.38-9.485-62.73-53.244c0.612-2.754-1.224-6.12-4.59-5.814
			c-28.458,2.754-52.938-6.732-68.544-31.212c-18.054-28.458-0.306-56.61,18.972-77.724c0,0,0-0.306,0.306-0.306
			c2.142,0,2.448-2.754,0.918-3.672c-14.994-10.71-23.562-22.032-20.502-41.004c3.06-20.502,21.726-28.152,40.392-23.868
			c3.366,0.918,7.65-2.448,6.12-6.12c-7.038-20.196-2.754-40.086,18.36-48.348c17.748-7.038,32.742,3.672,46.206,13.464
			c2.142,1.53,4.896-0.306,5.508-2.448c1.53,0.612,3.366,0.306,4.284-1.224c41.004-59.364,135.864-59.058,147.797,21.42
			c0.612,3.672,6.427,5.202,8.875,2.448c16.218-27.54,37.025-16.83,62.729,31.824c-0.918,3.978,3.672,8.874,7.65,5.814
			c51.102-36.108,85.067,27.234,85.985,66.708C508.907,240.576,455.968,279.744,404.254,254.04z"/>
		<path d="M335.098,427.849c-30.906,25.703-74.358,25.703-110.466,11.321c8.568-7.038,18.054-10.098,29.376-12.546
			c0.918-0.306,0.918-1.836,0-2.142c-16.524-2.448-28.458,0.611-40.392,12.852c-1.836,1.836-1.836,5.508,0.918,6.732
			c38.556,18.054,93.331,21.114,125.766-11.017C343.972,429.685,338.77,424.788,335.098,427.849z"/>
		<path d="M297.155,89.106C248.806,75.642,179.65,94.614,159.76,143.88c-17.442,43.452,24.48,114.444,74.052,104.04
			c-5.202,10.404-5.814,22.338-1.53,33.66c0.918,2.754,3.672,4.284,6.426,2.754c7.65-4.284,13.158-7.038,17.136-12.24
			c1.224,3.06,2.754,5.814,3.672,9.486c0.918,3.366,5.814,4.284,7.65,0.918c2.448-4.59,4.896-8.874,7.038-13.464
			c6.426,7.344,15.605,11.322,25.397,6.732c9.792-4.59,7.956-15.3,3.061-22.95c40.086,5.508,69.462-25.092,70.992-64.872
			C375.184,142.044,339.382,101.04,297.155,89.106z M298.073,244.248c-1.225,0-2.143,0.918-2.754,1.53
			c-3.061,0.306-5.814,4.59-3.061,7.65c3.672,4.59,8.874,12.24,0.306,14.994c-7.038,2.142-12.852-5.508-15.605-10.404
			c-2.142-3.366-6.732-2.448-7.956,0.918c-1.53,3.978-3.366,7.344-5.202,11.016c-1.836-3.978-3.366-7.65-3.366-12.24
			c-0.306-4.896-7.65-6.12-8.568-1.224c-1.836,10.404-6.12,13.158-13.158,17.136c-3.06-9.18-1.836-18.666,1.836-27.846
			c3.06-1.836,1.53-6.426-2.448-5.814c-59.976,8.874-89.964-79.56-50.184-117.81c28.764-27.54,86.292-31.824,121.176-16.524
			c30.294,13.158,49.266,45.288,53.244,77.112C368.453,227.418,335.71,240.882,298.073,244.248z"/>
		<path d="M227.692,176.622c-1.224-11.322,0.918-22.95,4.59-33.66c1.224-3.366-3.978-5.508-5.814-2.448
			c-11.016,19.278-16.524,59.976,5.508,74.358c3.366,2.142,7.038-1.53,6.12-4.896C235.648,198.348,228.917,188.862,227.692,176.622z
			"/>
		<path d="M303.274,222.216c-3.978-9.486-8.567-18.054-11.016-28.152c-2.448-10.71-1.224-21.42-0.612-32.436
			c0.307-3.672-4.896-3.672-5.813-0.918c-7.956,19.278-6.12,50.49,9.18,66.096C298.073,230.478,305.111,227.112,303.274,222.216z"/>
	</g>
</g>
</svg>