<?xml version="1.0" encoding="UTF-8" standalone="no"?>
<svg xmlns="http://www.w3.org/2000/svg" width="1000" height="1000" viewBox="0 0 1000 1000">
  <defs>
    <!-- Define the head pattern -->
    <g id="head-pattern" fill="var(--block-background-color)" fill-opacity="0.01" fill-rule="evenodd" stroke="none">
      <path d="M 232 275 L 231 276 L 230 276 L 229 277 L 228 277 L 227 278 L 226 279 L 225 280 L 224 281 L 224 282 L 223 283 L 222 284 L 222 285 L 221 286 L 221 287 L 220 288 L 220 289 L 219 290 L 219 291 L 218 292 L 218 293 L 218 294 L 219 295 L 220 295 L 221 294 L 222 294 L 223 293 L 223 292 L 224 291 L 225 290 L 225 289 L 226 288 L 227 287 L 228 286 L 228 285 L 229 284 L 230 284 L 231 283 L 232 282 L 233 282 L 234 281 L 235 281 L 236 281 L 237 281 L 238 281 L 239 281 L 240 281 L 241 281 L 242 282 L 243 282 L 244 282 L 245 282 L 246 282 L 247 281 L 247 280 L 246 279 L 246 278 L 245 277 L 244 276 L 243 276 L 242 276 L 241 275 L 240 275 L 239 275 L 238 275 L 237 275 L 236 275 L 235 275 L 234 275 L 233 275 Z M 197 0 L 196 1 L 195 1 L 194 1 L 193 1 L 192 1 L 191 2 L 190 2 L 189 3 L 188 3 L 187 4 L 186 4 L 185 5 L 184 5 L 183 6 L 182 7 L 181 7 L 180 8 L 179 8 L 178 9 L 177 9 L 176 10 L 175 10 L 174 10 L 173 11 L 172 11 L 171 11 L 170 12 L 169 12 L 168 12 L 167 12 L 166 12 L 165 13 L 164 13 L 163 13 L 162 13 L 161 13 L 160 13 L 159 13 L 158 13 L 157 13 L 156 13 L 155 12 L 154 12 L 153 12 L 152 12 L 151 12 L 150 12 L 149 11 L 148 11 L 147 11 L 146 11 L 145 11 L 144 11 L 143 11 L 142 11 L 141 11 L 140 11 L 139 11 L 138 11 L 137 11 L 136 12 L 135 12 L 134 12 L 133 12 L 132 12 L 131 12 L 130 12 L 129 12 L 128 12 L 127 12 L 126 12 L 125 12 L 124 12 L 123 12 L 122 12 L 121 12 L 120 12 L 119 12 L 118 12 L 117 12 L 116 12 L 115 12 L 114 12 L 113 13 L 112 13 L 111 13 L 110 13 L 109 13 L 108 13 L 107 13 L 106 13 L 105 13 L 104 13 L 103 13 L 102 14 L 101 14 L 100 14 L 99 14 L 98 15 L 97 15 L 96 15 L 95 15 L 94 16 L 93 16 L 92 16 L 91 17 L 90 17 L 89 17 L 88 18 L 87 18 L 86 18 L 85 19 L 84 19 L 83 20 L 82 21 L 81 21 L 80 22 L 79 23 L 79 24 L 79 25 L 79 26 L 79 27 L 80 28 L 80 29 L 80 30 L 81 31 L 81 32 L 81 33 L 81 34 L 81 35 L 81 36 L 81 37 L 80 38 L 79 39 L 78 40 L 77 41 L 76 41 L 75 42 L 74 42 L 73 43 L 72 44 L 71 45 L 70 45 L 69 46 L 68 47 L 67 48 L 66 49 L 65 49 L 64 50 L 63 51 L 62 52 L 61 53 L 60 54 L 59 55 L 58 56 L 57 57 L 56 58 L 55 59 L 54 60 L 53 61 L 52 62 L 51 63 L 50 64 L 49 65 L 48 66 L 47 67 L 46 68 L 45 69 L 44 70 L 44 71 L 43 72 L 42 73 L 42 74 L 41 75 L 40 76 L 40 77 L 39 78 L 38 79 L 38 80 L 37 81 L 37 82 L 36 83 L 35 84 L 35 85 L 34 86 L 33 87 L 33 88 L 32 89 L 32 90 L 32 91 L 31 92 L 31 93 L 31 94 L 31 95 L 31 96 L 30 97 L 30 98 L 30 99 L 29 100 L 29 101 L 28 102 L 28 103 L 27 104 L 27 105 L 26 106 L 25 107 L 25 108 L 24 109 L 24 110 L 23 111 L 22 112 L 22 113 L 21 114 L 20 115 L 19 116 L 18 117 L 17 118 L 17 119 L 16 120 L 16 121 L 15 122 L 15 123 L 15 124 L 14 125 L 14 126 L 13 127 L 13 128 L 13 129 L 12 130 L 12 131 L 11 132 L 11 133 L 10 134 L 10 135 L 9 136 L 8 137 L 8 138 L 7 139 L 6 140 L 5 141 L 4 142 L 3 143 L 2 144 L 1 145 L 1 146 L 1 147 L 0 148 L 0 149 L 1 150 L 1 151 L 1 152 L 2 153 L 2 154 L 3 155 L 4 156 L 5 157 L 6 158 L 7 159 L 8 160 L 9 161 L 10 162 L 11 163 L 12 164 L 12 165 L 12 166 L 12 167 L 12 168 L 12 169 L 12 170 L 12 171 L 12 172 L 11 173 L 11 174 L 11 175 L 11 176 L 11 177 L 11 178 L 11 179 L 11 180 L 11 181 L 11 182 L 12 183 L 12 184 L 12 185 L 12 186 L 13 187 L 13 188 L 13 189 L 14 190 L 14 191 L 15 192 L 15 193 L 16 194 L 17 195 L 17 196 L 18 197 L 19 198 L 19 199 L 20 200 L 20 201 L 21 202 L 21 203 L 22 204 L 22 205 L 23 206 L 23 207 L 24 208 L 24 209 L 25 210 L 25 211 L 26 212 L 26 213 L 26 214 L 27 215 L 27 216 L 27 217 L 27 218 L 27 219 L 27 220 L 27 221 L 27 222 L 27 223 L 27 224 L 27 225 L 27 226 L 27 227 L 27 228 L 27 229 L 27 230 L 27 231 L 27 232 L 27 233 L 27 234 L 27 235 L 27 236 L 26 237 L 26 238 L 26 239 L 26 240 L 26 241 L 25 242 L 25 243 L 25 244 L 24 245 L 24 246 L 24 247 L 24 248 L 23 249 L 24 250 L 24 251 L 24 252 L 25 253 L 26 254 L 27 255 L 28 256 L 29 256 L 30 257 L 31 258 L 32 258 L 33 259 L 34 259 L 35 260 L 36 260 L 37 261 L 38 261 L 39 262 L 40 262 L 41 263 L 42 263 L 43 263 L 44 263 L 45 264 L 46 264 L 47 264 L 48 264 L 49 264 L 50 264 L 51 265 L 51 266 L 51 267 L 51 268 L 51 269 L 51 270 L 51 271 L 51 272 L 51 273 L 51 274 L 51 275 L 51 276 L 51 277 L 51 278 L 51 279 L 51 280 L 52 281 L 52 282 L 52 283 L 52 284 L 52 285 L 53 286 L 53 287 L 54 288 L 54 289 L 55 290 L 56 291 L 57 291 L 58 292 L 59 293 L 60 294 L 60 295 L 61 296 L 62 297 L 63 298 L 64 299 L 65 299 L 66 300 L 67 301 L 68 301 L 69 302 L 70 302 L 71 303 L 72 303 L 73 304 L 74 304 L 75 304 L 76 305 L 77 306 L 78 307 L 79 307 L 80 308 L 81 309 L 82 310 L 82 311 L 83 312 L 84 313 L 85 314 L 86 315 L 86 316 L 87 317 L 87 318 L 88 319 L 88 320 L 89 321 L 90 321 L 91 322 L 92 322 L 93 322 L 94 321 L 95 321 L 96 320 L 97 319 L 98 318 L 99 317 L 100 316 L 101 315 L 102 314 L 103 315 L 104 316 L 105 317 L 106 318 L 107 319 L 108 320 L 109 321 L 110 322 L 111 323 L 111 324 L 112 325 L 113 326 L 114 327 L 115 328 L 116 328 L 117 328 L 118 328 L 119 328 L 120 328 L 121 327 L 122 327 L 123 326 L 124 325 L 125 324 L 126 323 L 127 323 L 128 322 L 129 321 L 130 320 L 131 319 L 132 318 L 133 317 L 134 316 L 135 315 L 136 315 L 137 315 L 138 316 L 139 316 L 140 316 L 141 317 L 142 317 L 143 317 L 144 318 L 145 318 L 146 318 L 147 318 L 148 319 L 149 319 L 150 319 L 151 319 L 152 320 L 153 320 L 154 320 L 155 320 L 156 321 L 157 321 L 158 321 L 159 321 L 160 322 L 161 322 L 162 322 L 163 322 L 164 323 L 165 323 L 166 323 L 167 323 L 168 323 L 169 323 L 170 323 L 171 323 L 172 323 L 173 323 L 174 323 L 175 324 L 176 324 L 177 324 L 178 324 L 179 324 L 180 324 L 181 324 L 182 324 L 183 324 L 184 324 L 185 324 L 186 325 L 187 325 L 188 325 L 189 325 L 190 325 L 191 325 L 192 325 L 193 325 L 194 325 L 195 325 L 196 325 L 197 325 L 198 325 L 199 325 L 200 325 L 201 325 L 202 325 L 203 324 L 204 324 L 205 324 L 206 324 L 207 324 L 208 324 L 209 324 L 210 324 L 211 324 L 212 323 L 213 323 L 214 323 L 215 323 L 216 323 L 217 323 L 218 323 L 219 322 L 220 322 L 221 322 L 222 321 L 223 321 L 224 321 L 225 321 L 226 320 L 227 320 L 228 320 L 229 319 L 230 319 L 231 319 L 232 319 L 233 319 L 234 318 L 235 318 L 236 318 L 237 318 L 238 317 L 239 317 L 240 317 L 241 317 L 242 316 L 243 316 L 244 316 L 245 315 L 246 315 L 247 314 L 248 314 L 249 314 L 250 313 L 251 313 L 252 312 L 253 312 L 254 312 L 255 311 L 256 311 L 257 310 L 258 310 L 259 310 L 260 309 L 261 309 L 262 308 L 263 308 L 264 307 L 265 307 L 266 307 L 267 306 L 268 306 L 269 305 L 270 305 L 271 304 L 272 304 L 273 303 L 274 303 L 275 302 L 276 302 L 277 301 L 278 301 L 279 300 L 280 300 L 281 299 L 282 298 L 283 298 L 284 297 L 285 297 L 286 296 L 287 295 L 288 295 L 289 294 L 290 293 L 291 292 L 292 291 L 293 290 L 294 289 L 295 288 L 296 287 L 296 286 L 297 285 L 298 284 L 299 283 L 300 282 L 301 281 L 301 280 L 302 279 L 303 278 L 303 277 L 304 276 L 304 275 L 305 274 L 305 273 L 306 272 L 306 271 L 307 270 L 307 269 L 307 268 L 308 267 L 308 266 L 308 265 L 309 264 L 309 263 L 309 262 L 310 261 L 310 260 L 310 259 L 310 258 L 311 257 L 311 256 L 311 255 L 311 254 L 311 253 L 311 252 L 311 251 L 311 250 L 311 249 L 311 248 L 311 247 L 311 246 L 311 245 L 311 244 L 311 243 L 311 242 L 310 241 L 310 240 L 310 239 L 310 238 L 309 237 L 309 236 L 309 235 L 309 234 L 310 233 L 311 233 L 312 233 L 313 232 L 314 231 L 315 231 L 316 230 L 317 229 L 318 228 L 318 227 L 319 226 L 320 225 L 321 224 L 321 223 L 322 222 L 323 221 L 323 220 L 323 219 L 324 218 L 324 217 L 324 216 L 324 215 L 325 214 L 325 213 L 325 212 L 325 211 L 325 210 L 325 209 L 325 208 L 325 207 L 325 206 L 324 205 L 324 204 L 324 203 L 324 202 L 323 201 L 323 200 L 323 199 L 323 198 L 323 197 L 324 196 L 325 195 L 326 194 L 327 194 L 328 193 L 329 193 L 330 192 L 331 192 L 332 191 L 333 191 L 334 190 L 335 189 L 336 188 L 337 187 L 338 186 L 339 185 L 339 184 L 340 183 L 340 182 L 341 181 L 341 180 L 341 179 L 341 178 L 342 177 L 342 176 L 342 175 L 341 174 L 341 173 L 340 172 L 339 172 L 338 171 L 337 171 L 336 170 L 335 169 L 334 168 L 333 167 L 332 166 L 331 165 L 330 164 L 329 163 L 328 162 L 327 161 L 326 161 L 325 160 L 324 159 L 324 158 L 323 157 L 323 156 L 323 155 L 322 154 L 322 153 L 322 152 L 322 151 L 322 150 L 321 149 L 321 148 L 321 147 L 321 146 L 321 145 L 321 144 L 320 143 L 320 142 L 320 141 L 320 140 L 320 139 L 320 138 L 320 137 L 320 136 L 320 135 L 320 134 L 320 133 L 319 132 L 319 131 L 319 130 L 319 129 L 319 128 L 319 127 L 319 126 L 318 125 L 318 124 L 318 123 L 318 122 L 318 121 L 318 120 L 317 119 L 317 118 L 317 117 L 317 116 L 317 115 L 316 114 L 316 113 L 316 112 L 316 111 L 315 110 L 315 109 L 315 108 L 315 107 L 315 106 L 314 105 L 314 104 L 314 103 L 314 102 L 313 101 L 313 100 L 312 99 L 312 98 L 311 97 L 311 96 L 310 95 L 310 94 L 309 93 L 308 92 L 308 91 L 308 90 L 307 89 L 307 88 L 306 87 L 305 86 L 305 85 L 304 84 L 303 83 L 303 82 L 302 81 L 302 80 L 302 79 L 303 78 L 303 77 L 304 76 L 304 75 L 304 74 L 305 73 L 305 72 L 305 71 L 305 70 L 305 69 L 306 68 L 306 67 L 306 66 L 306 65 L 306 64 L 306 63 L 306 62 L 306 61 L 305 60 L 305 59 L 305 58 L 304 57 L 303 57 L 302 57 L 301 57 L 300 57 L 299 57 L 298 57 L 297 57 L 296 57 L 295 57 L 294 57 L 293 57 L 292 56 L 291 55 L 290 54 L 289 53 L 288 52 L 287 51 L 286 50 L 285 49 L 284 49 L 283 48 L 282 48 L 281 47 L 280 47 L 279 46 L 278 45 L 277 45 L 276 44 L 275 44 L 274 43 L 273 43 L 272 42 L 271 42 L 270 41 L 269 41 L 268 40 L 267 40 L 266 39 L 265 39 L 264 38 L 263 38 L 262 37 L 261 37 L 260 37 L 259 36 L 258 36 L 257 35 L 256 35 L 255 35 L 254 34 L 253 34 L 252 34 L 251 33 L 250 33 L 249 33 L 248 32 L 247 32 L 246 32 L 245 31 L 244 31 L 243 30 L 242 29 L 241 29 L 240 28 L 239 27 L 238 26 L 237 26 L 236 25 L 235 25 L 234 24 L 233 24 L 232 23 L 231 23 L 230 22 L 229 22 L 228 22 L 227 21 L 226 21 L 225 21 L 224 20 L 223 20 L 222 20 L 221 19 L 220 19 L 219 18 L 218 18 L 217 17 L 217 16 L 217 15 L 216 14 L 216 13 L 216 12 L 215 11 L 215 10 L 214 9 L 213 8 L 212 7 L 211 6 L 210 6 L 209 5 L 208 4 L 207 4 L 206 3 L 205 2 L 204 1 L 203 1 L 202 1 L 201 0 L 200 0 L 199 0 L 198 0 Z" />
    </g>
  </defs>
  
  <!-- Scattered head patterns with proper spacing to avoid overlap -->
  <use href="#head-pattern" transform="translate(100, 100) rotate(12 171.5 164.5) scale(0.6)" />
  <use href="#head-pattern" transform="translate(600, 50) rotate(-18 171.5 164.5) scale(0.7)" />
  <use href="#head-pattern" transform="translate(200, 450) rotate(25 171.5 164.5) scale(0.65)" />
  <use href="#head-pattern" transform="translate(750, 400) rotate(-8 171.5 164.5) scale(0.8)" />
  <use href="#head-pattern" transform="translate(50, 700) rotate(35 171.5 164.5) scale(0.7)" />
  <use href="#head-pattern" transform="translate(500, 750) rotate(-22 171.5 164.5) scale(0.6)" />
</svg>
