<?xml version='1.0' encoding='utf-8'?>
<svg xmlns="http://www.w3.org/2000/svg" version="1.1" width="332" height="420" viewBox="0 0 332 420"><path d="M213.00,349.00 L207.00,344.00 L202.00,344.00 L190.00,355.00 L190.00,357.00 L192.00,357.00 L202.00,349.00 L206.00,349.00 L210.00,352.00 L212.00,352.00 Z M93.00,329.00 L93.00,336.00 L97.00,344.00 L103.00,351.00 L109.00,353.00 L122.00,352.00 L135.00,348.00 L148.00,341.00 L154.00,335.00 L153.00,330.00 L135.00,328.00 L112.00,322.00 L98.00,322.00 Z M100.00,331.00 L105.00,328.00 L112.00,329.00 L116.00,333.00 L118.00,341.00 L125.00,345.00 L119.00,349.00 L109.00,346.00 L102.00,339.00 Z M202.00,321.00 L191.00,321.00 L187.00,324.00 L187.00,327.00 L202.00,324.00 Z M275.00,293.00 L271.00,289.00 L264.00,287.00 L250.00,294.00 L231.00,309.00 L229.00,313.00 L230.00,321.00 L238.00,324.00 L262.00,324.00 L268.00,321.00 L274.00,314.00 L276.00,301.00 Z M235.00,314.00 L241.00,309.00 L247.00,307.00 L254.00,315.00 L260.00,318.00 L255.00,321.00 L240.00,321.00 L235.00,318.00 Z M281.00,42.00 L281.00,44.00 L286.00,44.00 L286.00,41.00 Z M254.00,31.00 L243.00,42.00 L243.00,44.00 L246.00,45.00 L255.00,38.00 L259.00,43.00 L258.00,49.00 L254.00,54.00 L254.00,57.00 L257.00,57.00 L263.00,47.00 L263.00,38.00 L261.00,34.00 Z M270.00,29.00 L269.00,34.00 L271.00,36.00 L275.00,36.00 L275.00,31.00 L273.00,29.00 Z M284.00,15.00 L241.00,16.00 L211.00,56.00 L166.00,69.00 L164.00,123.00 L114.00,115.00 L103.00,135.00 L62.00,153.00 L18.00,195.00 L26.00,214.00 L10.00,327.00 L36.00,344.00 L69.00,399.00 L89.00,393.00 L113.00,410.00 L135.00,394.00 L234.00,389.00 L263.00,400.00 L289.00,376.00 L322.00,286.00 L308.00,264.00 L301.00,210.00 L264.00,159.00 L263.00,137.00 L235.00,129.00 L251.00,85.00 L290.00,77.00 L314.00,40.00 Z M257.00,383.00 L259.00,384.00 L258.00,389.00 L256.00,387.00 Z M269.00,366.00 L271.00,365.00 L272.00,368.00 L270.00,369.00 Z M53.00,331.00 L56.00,331.00 L64.00,337.00 L79.00,352.00 L83.00,361.00 L83.00,365.00 L80.00,368.00 L75.00,370.00 L68.00,369.00 L55.00,363.00 L50.00,359.00 L47.00,354.00 L46.00,347.00 L47.00,339.00 Z M21.00,312.00 L24.00,310.00 L28.00,313.00 L25.00,315.00 Z M298.00,291.00 L301.00,294.00 L300.00,320.00 L294.00,327.00 L290.00,327.00 L287.00,323.00 L286.00,308.00 L293.00,300.00 Z M306.00,291.00 L309.00,290.00 L310.00,292.00 L307.00,293.00 Z M92.00,291.00 L89.00,294.00 L86.00,293.00 L89.00,290.00 Z M286.00,283.00 L288.00,284.00 L287.00,289.00 L285.00,287.00 Z M302.00,277.00 L304.00,277.00 L306.00,280.00 L304.00,283.00 L304.00,285.00 L306.00,286.00 L305.00,290.00 L301.00,286.00 Z M197.00,276.00 L198.00,279.00 L193.00,284.00 L193.00,278.00 Z M259.00,271.00 L260.00,274.00 L256.00,276.00 L255.00,274.00 Z M276.00,284.00 L280.00,310.00 L278.00,336.00 L258.00,362.00 L231.00,376.00 L167.00,389.00 L138.00,386.00 L102.00,370.00 L82.00,339.00 L84.00,307.00 L99.00,307.00 L130.00,274.00 L159.00,290.00 L170.00,290.00 L179.00,299.00 L202.00,294.00 L234.00,269.00 L242.00,280.00 L271.00,276.00 Z M203.00,267.00 L204.00,270.00 L201.00,274.00 L200.00,272.00 Z M85.00,264.00 L86.00,268.00 L82.00,271.00 L80.00,268.00 Z M282.00,245.00 L283.00,247.00 L281.00,252.00 L278.00,253.00 L277.00,250.00 Z M97.00,180.00 L98.00,183.00 L96.00,185.00 L95.00,182.00 Z M222.00,162.00 L223.00,164.00 L219.00,166.00 L218.00,165.00 Z M197.00,156.00 L198.00,159.00 L195.00,161.00 L194.00,159.00 Z M134.00,153.00 L137.00,151.00 L139.00,152.00 L138.00,154.00 Z M194.00,144.00 L195.00,142.00 L199.00,143.00 L196.00,146.00 Z M202.00,115.00 L203.00,119.00 L198.00,130.00 L197.00,126.00 L199.00,118.00 Z M180.00,83.00 L181.00,88.00 L179.00,90.00 L178.00,84.00 Z M303.00,37.00 L306.00,40.00 L305.00,46.00 L299.00,51.00 L297.00,48.00 L297.00,39.00 Z M288.00,27.00 L286.00,33.00 L291.00,34.00 L294.00,39.00 L295.00,53.00 L290.00,67.00 L281.00,76.00 L269.00,81.00 L244.00,80.00 L230.00,84.00 L202.00,80.00 L199.00,77.00 L205.00,69.00 L224.00,59.00 L234.00,33.00 L245.00,22.00 L256.00,17.00 L271.00,17.00 L283.00,22.00 Z" fill="#000000" stroke="none" fill-rule="evenodd" /></svg>